# xmcd
#
# Track frame offsets:
#	150
#	15601
#	26862
#	37006
#	47145
#	58222
#	69186
#	79642
#	90706
#	101394
#	112033
#	123107
#	134864
#	135827
#	136537
#	139084
#	140281
#	151798
#	164520
#	165299
#	166629
#	179788
#	191725
#	192682
#	193646
#	194174
#	195035
#	195654
#	207511
#	210114
#	211324
#	223192
#	234953
#	235862
#	237198
#	239482
#	252450
#	258597
#
# Disc length: 3486 seconds
# Revision: 3
# Processed by: cddbd v1.5.2PL0 Copyright (c) Steve Scherf et al.
# Submitted via: dBpowerAMP V12.0
#
DISCID=290d9c26
DTITLE=Buck Owens - Open Up Your Heart: The Buck Owens and the Buckaroos Recordings 1965-1968, CD07 - CD07
DYEAR=2010
DGENRE=Country
TTITLE0=White Satin Bed
TTITLE1=In The Middle of a Teardrop
TTITLE2=You Can't Make Nothin' Out of That But Love
TTITLE3=I Would Do Anything for You
TTITLE4=Maybe If I Close My Eyes (It Will Go Away)
TTITLE5=Across This Town and Gone
TTITLE6=Where Does The Good Times Go [Take 9]
TTITLE7=Where Does The Good Times Go [Take 8B]
TTITLE8=How Long Will My Baby Be Gone [Take 5A]
TTITLE9=How Long Will My Baby Be Gone [Take 9A]
TTITLE10=That's All Right with Me (If It's All Right with You) [Take 6]
TTITLE11=Darlin' You Can Depend on Me [Take 2]
TTITLE12=Cadillac Lane [Take 1]
TTITLE13=Cadillac Lane [Take 2]
TTITLE14=Cadillac Lane [Take 3]
TTITLE15=Cadillac Lane [Take 4]
TTITLE16=Cadillac Lane [Take 5]
TTITLE17=Cadillac Lane [Take 6]
TTITLE18=Cadillac Lane [Take 7]
TTITLE19=Cadillac Lane [Take 8]
TTITLE20=Cadillac Lane [Take 9]
TTITLE21=Happy Son of a Gun [Take 1]
TTITLE22=Happy Son of a Gun [Take 2]
TTITLE23=Happy Son of a Gun [Take 3]
TTITLE24=Happy Son of a Gun [Take 4]
TTITLE25=Happy Son of a Gun [Take 5]
TTITLE26=Happy Son of a Gun [Take 6]
TTITLE27=Happy Son of a Gun [Take 7]
TTITLE28=Happy Son of a Gun [Take 8]
TTITLE29=Happy Son of a Gun [Take 9]
TTITLE30=Happy Son of a Gun [Take 10]
TTITLE31=Happy Son of a Gun [Take 11]
TTITLE32=Happy Son of a Gun [Take 12]
TTITLE33=Happy Son of a Gun [Take 13]
TTITLE34=Happy Son of a Gun [Take 14]
TTITLE35=Happy Son of a Gun [Take 15]
TTITLE36=Toys for Tots [Take 3]
TTITLE37=Toys for Tots [Take 6]
EXTD=
EXTT0=
EXTT1=
EXTT2=
EXTT3=
EXTT4=
EXTT5=
EXTT6=
EXTT7=
EXTT8=
EXTT9=
EXTT10=
EXTT11=
EXTT12=
EXTT13=
EXTT14=
EXTT15=
EXTT16=
EXTT17=
EXTT18=
EXTT19=
EXTT20=
EXTT21=
EXTT22=
EXTT23=
EXTT24=
EXTT25=
EXTT26=
EXTT27=
EXTT28=
EXTT29=
EXTT30=
EXTT31=
EXTT32=
EXTT33=
EXTT34=
EXTT35=
EXTT36=
EXTT37=
PLAYORDER=
